<?xml version="1.0" standalone="no"?><!DOCTYPE svg PUBLIC "-//W3C//DTD SVG 1.1//EN" "http://www.w3.org/Graphics/SVG/1.1/DTD/svg11.dtd"><svg t="1501002796920" class="icon" style="" viewBox="0 0 1024 1024" version="1.1" xmlns="http://www.w3.org/2000/svg" p-id="2075" xmlns:xlink="http://www.w3.org/1999/xlink" width="200" height="200"><defs><style type="text/css"></style></defs><path d="M518.581 986.657c-63.74 0-125.581-12.487-183.806-37.114-56.23-23.783-106.727-57.829-150.089-101.189-43.361-43.361-77.405-93.859-101.189-150.089-24.628-58.227-37.115-120.068-37.115-183.807s12.487-125.581 37.114-183.806c23.783-56.231 57.828-106.729 101.189-150.089s93.859-77.405 150.089-101.189c58.225-24.627 120.066-37.115 183.806-37.115s125.581 12.487 183.806 37.115c56.23 23.783 106.727 57.828 150.089 101.189s77.407 93.859 101.189 150.089c24.627 58.225 37.114 120.066 37.114 183.806s-12.487 125.581-37.114 183.806c-23.783 56.231-57.828 106.727-101.189 150.089-43.361 43.36-93.859 77.405-150.089 101.189-58.225 24.627-120.066 37.115-183.805 37.115zM518.581 74.26c-59.434 0-117.081 11.636-171.34 34.587-52.417 22.171-99.494 53.913-139.926 94.345-40.432 40.432-72.175 87.51-94.345 139.927-22.95 54.259-34.587 111.907-34.587 171.342s11.636 117.081 34.587 171.342c22.17 52.417 53.913 99.495 94.345 139.927 40.432 40.432 87.51 72.175 139.926 94.345 54.259 22.95 111.907 34.587 171.34 34.587s117.081-11.636 171.34-34.587c52.417-22.171 99.494-53.913 139.926-94.345 40.432-40.432 72.175-87.51 94.345-139.927 22.95-54.259 34.587-111.907 34.587-171.342s-11.636-117.081-34.587-171.342c-22.17-52.417-53.913-99.494-94.345-139.927-40.432-40.432-87.51-72.174-139.926-94.345-54.259-22.95-111.907-34.587-171.34-34.587z" fill="#bfbfbf" p-id="2076"></path><path d="M593.066 521.345c0-40.178-32.357-72.634-72.731-72.634-40.178 0-72.894 32.487-72.894 72.634 0 10.395 2.183 20.268 6.061 29.132-15.609 16.489-32.814 37.148-49.596 62.239-36.073 53.408-75.436 138.978-84.559 251.398h39.233c7.007-82.8 32.716-158.986 76.869-225.036 14.468-21.865 29.425-43.209 43.175-57.97 11.926 8.244 26.198 13.132 41.71 13.132 40.373 0 72.731-32.489 72.731-72.895z" fill="#bfbfbf" p-id="2077"></path><path d="M518.581 746.629v-32c110.374 0 200.171-89.795 200.171-200.171s-89.795-200.171-200.171-200.171-200.171 89.795-200.171 200.171h-32c0-62.015 24.15-120.318 68.001-164.17s102.155-68.001 164.17-68.001 120.318 24.15 164.17 68.001c43.852 43.852 68.001 102.155 68.001 164.17s-24.15 120.319-68.001 164.17c-43.852 43.851-102.155 68.001-164.17 68.001z" fill="#bfbfbf" p-id="2078"></path></svg>