<?xml version="1.0" standalone="no"?><!DOCTYPE svg PUBLIC "-//W3C//DTD SVG 1.1//EN" "http://www.w3.org/Graphics/SVG/1.1/DTD/svg11.dtd"><svg t="1505233932113" class="icon" style="" viewBox="0 0 1025 1024" version="1.1" xmlns="http://www.w3.org/2000/svg" p-id="7799" xmlns:xlink="http://www.w3.org/1999/xlink" width="200.1953125" height="200"><defs><style type="text/css"></style></defs><path d="M924.9024 941.41952 99.0976 941.41952C44.455253 941.41952 0 896.964267 0 842.32192L0 181.67808c0-54.642347 44.455253-99.0976 99.0976-99.0976l825.806507 0c54.642347 0 99.0976 44.455253 99.0976 99.0976l0 660.645547C1024 896.964267 979.544747 941.41952 924.9024 941.41952zM99.0976 115.613013c-36.4288 0-66.065067 29.636267-66.065067 66.065067l0 660.645547c0 36.427093 29.636267 66.065067 66.065067 66.065067l825.806507 0c36.427093 0 66.065067-29.636267 66.065067-66.065067L990.969173 181.67808c0-36.4288-29.636267-66.065067-66.065067-66.065067L99.0976 115.613013z" p-id="7800" fill="#515151"></path><path d="M511.173973 528.515413c-3.198293 0-6.396587-0.92672-9.171627-2.78016L7.343787 195.413333C2.756267 192.34816 0 187.195733 0 181.67808c0-54.642347 44.455253-99.0976 99.0976-99.0976l825.806507 0c29.841067 0 57.803093 13.25568 76.721493 36.370773C1016.05376 136.584533 1024 158.859947 1024 181.67808c0 5.526187-2.7648 10.687147-7.364267 13.748907L520.32512 525.750613C517.553493 527.593813 514.363733 528.515413 511.173973 528.515413zM33.57184 173.207893l477.617493 318.943573 479.24736-318.967467c-1.542827-12.224853-6.43584-23.610027-14.375253-33.31072-12.617387-15.41632-31.264427-24.25856-51.157333-24.25856L99.0976 115.61472C65.537707 115.613013 37.741227 140.762453 33.57184 173.207893z" p-id="7801" fill="#515151"></path></svg>