<?xml version="1.0" standalone="no"?><!DOCTYPE svg PUBLIC "-//W3C//DTD SVG 1.1//EN" "http://www.w3.org/Graphics/SVG/1.1/DTD/svg11.dtd"><svg t="1505269946513" class="icon" style="" viewBox="0 0 1024 1024" version="1.1" xmlns="http://www.w3.org/2000/svg" p-id="2640" xmlns:xlink="http://www.w3.org/1999/xlink" width="200" height="200"><defs><style type="text/css"></style></defs><path d="M658.239666 996.769822c-13.867846 0-23.23826-5.078669-29.012778-9.906627-9.533121-7.969509-15.000646-20.072151-15.000645-33.20424 0-4.959965 0.061398-13.4575 0.145309-25.220404 0.167822-23.458271 0.421602-58.906621 0.421602-99.663884 0-43.543725-16.522302-62.396095-23.62507-68.480674l-35.8106-30.673604 46.86333-5.211698c93.722568-10.42135 189.532681-42.803875 189.532681-203.974601 0-41.469484-13.941524-77.855182-41.438784-108.144023l-8.611122-9.487071 4.770653-11.890818c4.063549-10.126638 15.2094-45.200458-0.60989-94.056166-8.843412 0.727571-24.991184 4.487198-52.284807 18.019398-25.032116 12.411681-46.079478 26.51591-46.288233 26.657127l-7.834432 5.269004-9.099238-2.535753c-34.323737-9.586332-71.713298-14.652721-108.12458-14.652722-36.412304 0-73.800843 5.067412-108.125603 14.652722l-9.102308 2.541892-7.837503-5.279236c-0.203638-0.137123-21.251-14.241352-46.282092-26.653034-27.293623-13.533224-43.441395-17.291828-52.284807-18.019398-15.819291 48.856731-4.672416 83.929528-0.608867 94.055142l4.771676 11.891842-8.612145 9.487071c-27.496238 30.289863-41.438785 66.674539-41.438784 108.144023 0 161.229055 95.505167 193.585997 188.927907 203.974601l45.089941 5.0142-33.600259 30.484292c-6.661723 6.043646-18.443048 20.406772-22.494317 48.695049l-1.590218 11.102872-10.213619 4.63353c-13.612019 6.17463-40.964994 16.131399-71.172993 13.423731-25.501814-2.281973-61.293995-14.508435-87.025029-59.768245a76.166727 76.166727 0 0 0-5.506411-8.277524c11.620665 17.687848 18.549471 34.682917 19.841908 37.96773l0.400112 1.110287c8.269337 25.182542 31.523971 39.764656 69.117171 43.340088 31.479969 2.993171 60.132542-3.051499 60.418045-3.113921l24.767079-5.323239v25.332968c0 24.410969 0.233314 47.535643 0.404206 64.419172 0.091074 9.015328 0.162706 16.135492 0.162706 20.208251 0 13.132088-5.467525 25.234731-15.000646 33.204239-7.237845 6.051833-20.129456 12.498662-40.435944 8.841366l-1.459235-0.26299-1.407046-0.470721c-46.658669-15.608489-90.505293-38.347376-130.32316-67.586304a477.714126 477.714126 0 0 1-102.744036-102.856599C78.927607 742.705406 47.244001 645.73998 47.244001 544.113395c0-64.091714 12.5662-126.288265 37.348629-184.859241 23.931039-56.559157 58.183144-107.35403 101.804641-150.975527 43.621497-43.621497 94.417393-77.873602 150.97655-101.80464 58.570977-24.78243 120.766504-37.34863 184.858218-37.34863 64.092737 0 126.287241 12.5662 184.858218 37.34863 56.559157 23.931039 107.35403 58.183144 150.975526 101.80464 43.62252 43.621497 77.874625 94.417393 101.804641 150.975527 24.783453 58.570977 37.34863 120.767528 37.348629 184.859241 0 101.627608-31.683607 198.592011-91.623767 280.413528a477.764268 477.764268 0 0 1-102.745058 102.856599c-39.816844 29.238928-83.664491 51.977815-130.322138 67.586304l-1.406023 0.470721-1.460258 0.26299c-4.104481 0.738827-7.90811 1.066285-11.422143 1.066285z m-2.719948-41.305755c0.535189 0.234337 2.320858 0.599657 5.595438 0.159636 176.630836-59.820434 295.173696-224.978984 295.173696-411.510308 0-239.33904-194.71675-434.05579-434.05579-434.05579s-434.05579 194.71675-434.05579 434.05579c0 186.5303 118.541837 351.689874 295.173696 411.510308 3.273557 0.440022 5.059226 0.074701 5.595438-0.159636 0.141216-0.267083 0.361227-0.930185 0.361227-1.806135 0-3.866051-0.070608-10.895141-0.160659-19.795858-0.11461-11.411911-0.258896-25.659403-0.340761-41.255613-13.111622 1.260713-30.204929 1.989307-48.193628 0.277316-54.224995-5.15644-90.143043-29.591969-103.920838-70.680783-6.006807-14.920828-23.230074-47.184649-39.636742-54.749951l-1.573845-0.725524-1.428536-0.979304c-0.648776-0.445138-6.501064-4.499477-12.183483-9.912767-12.326746-11.741415-16.731056-23.51353-13.08911-34.989909 6.566556-20.693298 31.782867-20.352537 40.067554-20.23588l1.332345 0.061398c2.275833 0.180102 56.072063 4.995781 85.955674 56.95006l0.056282 0.098237c26.977421 47.508014 68.579935 43.239803 96.079242 33.282011 2.469238-11.082406 6.089695-21.438265 10.731412-30.806633-37.895075-6.89913-82.232886-20.550035-118.314662-50.903344-23.261797-19.568684-41.182958-44.555775-53.265135-74.265424-13.031804-32.044834-19.640316-70.598918-19.640315-114.588804 0-47.818075 14.83487-90.283236 44.125986-126.411062-6.481621-22.768563-13.352099-67.87897 8.784061-123.757628l3.595897-9.076726 9.317203-2.916423c21.216207-6.641257 51.267641-0.055259 91.872431 20.134573 17.907858 8.904811 33.621748 18.373463 42.611493 24.034393 35.340903-9.016351 73.214489-13.760398 110.144586-13.760399s74.804706 4.744048 110.144586 13.760399c8.989745-5.66093 24.704658-15.129582 42.612517-24.034393 40.605813-20.189831 70.656223-26.776853 91.87243-20.134573l9.31618 2.916423 3.595898 9.077749c22.13616 55.877635 15.266705 100.988042 8.785084 123.756605 29.291117 36.127825 44.125987 78.592986 44.125986 126.411062 0 44.122917-6.643304 82.763982-19.745716 114.854864-12.137435 29.730115-30.140461 54.711066-53.507658 74.252121-35.951817 30.062689-80.202647 43.670615-118.106931 50.582025 8.071839 16.21531 14.399965 38.531572 14.399964 68.651567 0 40.902572-0.25378 76.43995-0.422625 99.956549-0.083911 11.676947-0.144286 20.113083-0.144286 24.926716-0.001023 0.87288 0.218988 1.537006 0.360204 1.803065z" fill="#515151" p-id="2641"></path></svg>