<?xml version="1.0" standalone="no"?><!DOCTYPE svg PUBLIC "-//W3C//DTD SVG 1.1//EN" "http://www.w3.org/Graphics/SVG/1.1/DTD/svg11.dtd"><svg t="1505036218307" class="icon" style="" viewBox="0 0 1024 1024" version="1.1" xmlns="http://www.w3.org/2000/svg" p-id="4095" xmlns:xlink="http://www.w3.org/1999/xlink" width="200" height="200"><defs><style type="text/css"></style></defs><path d="M131.992576 189.228032z m-36.169728 0a36.20864 36.20864 0 0 0 18.082816 31.357952 36.150272 36.150272 0 0 0 36.170752 0 36.20864 36.20864 0 0 0 18.08384-31.357952 36.207616 36.207616 0 0 0-18.08384-31.356928 36.134912 36.134912 0 0 0-36.170752 0 36.210688 36.210688 0 0 0-18.082816 31.356928m36.169728 322.000896z m-36.169728 0c-0.002048 12.935168 6.890496 24.889344 18.082816 31.356928s24.98048 6.467584 36.170752 0a36.204544 36.204544 0 0 0 18.08384-31.356928 36.20352 36.20352 0 0 0-18.08384-31.356928c-11.191296-6.467584-24.979456-6.467584-36.170752 0s-18.084864 18.420736-18.082816 31.356928m36.169728 322.000896z m-36.169728 0a36.202496 36.202496 0 0 0 18.082816 31.35488 36.145152 36.145152 0 0 0 36.170752 0 36.201472 36.201472 0 0 0 18.08384-31.35488 36.20352 36.20352 0 0 0-18.08384-31.356928c-11.191296-6.467584-24.979456-6.467584-36.170752 0s-18.084864 18.420736-18.082816 31.356928m146.429952-667.62752h685.297664v45.727744H242.2528v-45.727744z m0 323.905536h685.297664v45.727744H242.2528v-45.727744z m0 320.094208h685.297664v45.727744H242.2528v-45.727744z" fill="#ffffff" p-id="4096"></path></svg>