<?xml version="1.0" standalone="no"?><!DOCTYPE svg PUBLIC "-//W3C//DTD SVG 1.1//EN" "http://www.w3.org/Graphics/SVG/1.1/DTD/svg11.dtd"><svg t="1501002902916" class="icon" style="" viewBox="0 0 1024 1024" version="1.1" xmlns="http://www.w3.org/2000/svg" p-id="2870" xmlns:xlink="http://www.w3.org/1999/xlink" width="200" height="200"><defs><style type="text/css"></style></defs><path d="M974.982 315.713c-25.374-59.987-61.695-113.862-107.957-160.124-46.261-46.262-100.137-82.583-160.124-107.958-62.11-26.271-128.084-39.591-196.089-39.591s-133.979 13.319-196.089 39.591c-59.987 25.374-113.863 61.695-160.124 107.958-46.262 46.262-82.583 100.137-107.958 160.124-26.271 62.11-39.591 128.084-39.591 196.086 0 68.005 13.319 133.979 39.591 196.089 25.374 59.988 61.695 113.863 107.958 160.125 46.262 46.261 100.137 82.583 160.124 107.957 62.11 26.27 128.084 39.591 196.086 39.591 68.005 0 133.979-13.322 196.089-39.591 59.987-25.374 113.863-61.695 160.124-107.957 46.261-46.262 82.583-100.137 107.957-160.125 26.271-62.11 39.591-128.084 39.591-196.089 0.002-68.001-13.317-133.978-39.59-196.086zM511.732 570.383c-98.627 0-178.864-80.247-178.864-178.883 0-98.627 80.24-178.864 178.864-178.864 98.646 0 178.899 80.24 178.899 178.864 0 98.638-80.253 178.883-178.899 178.883zM318.725 688.107c55.136-43.799 121.588-66.951 192.172-66.951 70.485 0 136.863 23.102 191.961 66.805 52.524 41.666 90.518 99.925 107.28 164.373-36.626 32.269-77.938 58.242-122.86 77.242-55.863 23.632-115.234 35.614-176.464 35.614-61.23 0-120.601-11.981-176.467-35.613-44.868-18.977-86.15-44.929-122.756-77.161 16.74-64.406 54.675-122.638 107.134-164.313zM734.167 648.497c-31.094-24.667-65.753-43.878-103.009-57.102-1.489-0.529-2.997-1.053-4.522-1.568 31.786-18.469 58.77-44.339 78.639-75.54 23.377-36.711 35.733-79.169 35.733-122.788 0-126.406-102.853-229.243-229.275-229.243-126.406 0-229.243 102.838-229.243 229.243 0 43.49 12.288 85.842 35.534 122.482 19.748 31.124 46.58 56.973 78.201 75.482-1.929 0.647-3.843 1.309-5.737 1.982-37.3 13.254-71.985 32.507-103.095 57.219-52.926 42.045-93.865 99.775-116.167 163.518-32.72-36.909-58.997-78.542-78.189-123.914-23.631-55.867-35.612-115.238-35.612-176.466 0-61.228 11.982-120.599 35.612-176.466 22.834-53.984 55.531-102.476 97.182-144.127 41.654-41.653 90.145-74.35 144.127-97.182 55.867-23.631 115.239-35.612 176.467-35.612 61.228 0 120.598 11.982 176.464 35.612 53.988 22.834 102.481 55.532 144.129 97.182 41.649 41.649 74.347 90.142 97.182 144.127 23.63 55.866 35.612 115.237 35.612 176.466 0 61.229-11.981 120.601-35.613 176.467-19.168 45.328-45.414 86.927-78.096 123.812-22.335-63.792-63.328-121.545-116.325-163.584z" p-id="2871" fill="#d4237a"></path></svg>